<svg height="511pt" viewBox="-4 0 511 511.99972" width="511pt" xmlns="http://www.w3.org/2000/svg"><path d="m67.1875 107.082031-58.871094 368.472657c-2.429687 15.1875 9.304688 28.945312 24.683594 28.945312h164.195312c12.996094 0 23.828126-9.960938 24.914063-22.914062l30.078125-358.992188zm0 0" fill="#f54432"/><path d="m252.1875 122.59375-126.113281-112.550781c-4.785157-4.273438-12.296875-2.996094-15.40625 2.617187l-26.84375 48.496094c-3.109375 5.613281-.199219 12.664062 5.96875 14.445312zm0 0" fill="#f85647"/><path d="m252.1875 122.59375-165.960938-72.347656c-4.785156-2.085938-10.367187-.140625-12.820312 4.464844l-28.335938 53.183593c-3.550781 6.660157 1.277344 14.699219 8.824219 14.699219zm0 0" fill="#fb695b"/><path d="m437.1875 107.082031 58.875 368.472657c2.425781 15.1875-9.308594 28.945312-24.6875 28.945312h-164.195312c-12.996094 0-23.824219-9.960938-24.910157-22.914062l-30.082031-358.992188zm0 0" fill="#f54432"/><path d="m252.1875 122.59375 126.113281-112.550781c4.785157-4.273438 12.300781-2.996094 15.40625 2.617187l26.847657 48.496094c3.109374 5.613281.195312 12.664062-5.96875 14.445312zm0 0" fill="#f85647"/><path d="m252.1875 122.59375 165.960938-72.347656c4.785156-2.085938 10.367187-.140625 12.824218 4.464844l28.332032 53.183593c3.550781 6.660157-1.277344 14.703125-8.824219 14.703125h-198.292969zm0 0" fill="#fb695b"/><path d="m293.832031 122.59375c0 23-18.644531 41.644531-41.644531 41.644531s-41.644531-18.644531-41.644531-41.644531c0-22.996094 18.644531-41.640625 41.644531-41.640625s41.644531 18.644531 41.644531 41.640625zm0 0" fill="#f8ea69"/><path d="m240.546875 122.59375c0-17.707031 11.058594-32.824219 26.640625-38.847656-4.652344-1.796875-9.707031-2.792969-15-2.792969-22.996094 0-41.640625 18.640625-41.640625 41.640625s18.644531 41.644531 41.640625 41.644531c5.292969 0 10.347656-.996093 15-2.796875-15.582031-6.019531-26.640625-21.136718-26.640625-38.847656zm0 0" fill="#f4e74d"/><path d="m132.292969 231.875-71.207031 272.625h60.664062l37.191406-267.308594c2.355469-16.949218-22.324218-21.871094-26.648437-5.316406zm0 0" fill="#e83826"/><path d="m372.085938 231.875 71.207031 272.625h-60.667969l-37.1875-267.308594c-2.359375-16.949218 22.324219-21.871094 26.648438-5.316406zm0 0" fill="#e83826"/><path d="m503.46875 474.371094-55.007812-344.277344h2.019531c6.203125 0 11.8125-3.171875 15.003906-8.492188 3.195313-5.316406 3.359375-11.761718.441406-17.234374l-28.335937-53.183594c-3.671875-6.898438-11.5-10.386719-18.914063-8.90625l-18.40625-33.25c-2.589843-4.679688-7.101562-7.878906-12.378906-8.777344-5.273437-.894531-10.59375.636719-14.585937 4.199219l-89.890626 80.226562c-8.496093-7.007812-19.378906-11.222656-31.226562-11.222656s-22.726562 4.214844-31.222656 11.222656l-89.894532-80.226562c-3.992187-3.566407-9.308593-5.09375-14.582031-4.199219-5.277343.898438-9.789062 4.097656-12.382812 8.777344l-18.40625 33.25c-7.414063-1.480469-15.238281 2.007812-18.914063 8.90625l-28.332031 53.179687c-2.917969 5.476563-2.753906 11.917969.4375 17.238281 3.191406 5.316407 8.800781 8.492188 15.003906 8.492188h2.023438l-26.753907 167.417969c-.652343 4.09375 2.132813 7.9375 6.222657 8.589843.402343.0625.800781.097657 1.195312.097657 3.621094 0 6.804688-2.628907 7.394531-6.316407l27.132813-169.789062h132.507813c3.035156 19.742188 17.867187 35.636719 37.042968 40.265625l-26.023437 310.601563c-.753907 8.992187-8.414063 16.039062-17.441407 16.039062h-66.828124l36.003906-258.773438c.875-6.289062-.796875-12.226562-4.707032-16.714843-3.996093-4.589844-10.148437-7.332031-16.457031-7.332031-9.746093 0-17.664062 6.203124-20.171875 15.800781l-69.742187 267.019531h-22.292969c-5.128906 0-9.984375-2.238281-13.3125-6.144531s-4.777344-9.050781-3.964844-14.117188l23.785156-148.859375c.652344-4.089844-2.132812-7.9375-6.222656-8.589844-4.089844-.648437-7.9375 2.132813-8.589844 6.222657l-23.785156 148.859375c-1.503906 9.410156 1.179688 18.96875 7.363282 26.21875 6.183593 7.25 15.199218 11.410156 24.726562 11.410156h164.195312c16.761719 0 30.988282-13.082031 32.386719-29.785156l22.605469-269.800782 22.605469 269.800782c1.398437 16.699218 15.625 29.785156 32.386719 29.785156h164.195312c9.53125 0 18.542969-4.160156 24.726562-11.410156 6.1875-7.25 8.871094-16.808594 7.367188-26.21875zm-432.671875 22.628906 68.75-263.226562c.992187-3.796876 3.625-4.59375 5.660156-4.59375 2 0 3.972657.835937 5.144531 2.179687 1.0625 1.21875 1.441407 2.789063 1.160157 4.800781l-36.289063 260.839844zm312.5-481.363281c.78125-.695313 1.640625-.671875 2.082031-.597657.441406.074219 1.261719.339844 1.769532 1.253907l17.519531 31.648437-110.980469 48.378906c-.097656-.148437-.195312-.300781-.289062-.449218zm-266.066406.65625c.507812-.914063 1.324219-1.179688 1.769531-1.253907.441406-.074218 1.300781-.097656 2.082031.601563l89.898438 80.230469c-.097657.148437-.195313.300781-.289063.449218l-110.980468-48.378906zm-65.476563 97.589843c-.273437-.453124-.644531-1.375-.066406-2.464843l28.335938-53.179688c.609374-1.144531 2.019531-1.636719 3.207031-1.117187l121.441406 52.941406c-.4375 1.644531-.792969 3.324219-1.054687 5.03125h-149.722657c-1.230469 0-1.871093-.757812-2.140625-1.210938zm166.292969 8.710938c0-18.824219 15.316406-34.140625 34.140625-34.140625 18.828125 0 34.144531 15.3125 34.144531 34.140625s-15.316406 34.144531-34.144531 34.144531c-18.824219 0-34.140625-15.316406-34.140625-34.144531zm171.105469 374.40625-36.289063-260.839844c-.277343-2.011718.101563-3.582031 1.160157-4.800781 1.171874-1.34375 3.144531-2.179687 5.148437-2.179687 2.03125 0 4.664063.796874 5.65625 4.589843l68.753906 263.230469zm95.539062-6.144531c-3.332031 3.90625-8.183594 6.144531-13.316406 6.144531h-22.289062l-69.742188-267.019531c-2.507812-9.597657-10.425781-15.800781-20.171875-15.800781-6.3125 0-12.464844 2.738281-16.460937 7.332031-3.90625 4.488281-5.578126 10.425781-4.703126 16.710937l36 258.777344h-66.824218c-9.027344 0-16.6875-7.046875-17.441406-16.039062l-26.023438-310.601563c19.175781-4.628906 34.003906-20.523437 37.042969-40.265625h65.523437c4.140625 0 7.5-3.355469 7.5-7.5s-3.359375-7.5-7.5-7.5h-65.523437c-.265625-1.707031-.621094-3.386719-1.054688-5.035156l121.4375-52.9375c1.191407-.519532 2.597657-.027344 3.207031 1.113281l28.335938 53.183594c.578125 1.085937.207031 2.007812-.0625 2.460937-.273438.453125-.914062 1.214844-2.144531 1.214844h-56.195313c-4.144531 0-7.5 3.355469-7.5 7.5s3.355469 7.5 7.5 7.5h38.984375l55.386719 346.644531c.808594 5.066407-.636719 10.214844-3.964844 14.117188zm0 0"/></svg>