<?xml version="1.0" encoding="utf-8"?>
<!-- Generator: Adobe Illustrator 22.0.0, SVG Export Plug-In . SVG Version: 6.00 Build 0)  -->
<svg version="1.1" id="Capa_1" xmlns="http://www.w3.org/2000/svg" xmlns:xlink="http://www.w3.org/1999/xlink" x="0px" y="0px"
	 viewBox="0 0 256 256" style="enable-background:new 0 0 256 256;" xml:space="preserve">
<style type="text/css">
	.st0{fill:#9ca3af;}
</style>
<g>
	<g>
		<path class="st0" d="M252.9,237.8L180.1,165c14.1-17.4,22.6-39.6,22.6-63.7C202.7,45.5,157.2,0,101.3,0S0,45.5,0,101.3
			s45.5,101.3,101.3,101.3c24.1,0,46.2-8.5,63.7-22.6l72.8,72.8c2.1,2.1,4.8,3.1,7.5,3.1s5.5-1,7.5-3.1
			C257,248.7,257,242,252.9,237.8z M101.3,181.3c-44.1,0-80-35.9-80-80s35.9-80,80-80s80,35.9,80,80S145.5,181.3,101.3,181.3z"/>
	</g>
</g>
</svg>
